<?xml version="1.0" standalone="no"?>
<!DOCTYPE svg PUBLIC "-//W3C//DTD SVG 20010904//EN"
 "http://www.w3.org/TR/2001/REC-SVG-20010904/DTD/svg10.dtd">
<svg version="1.0" xmlns="http://www.w3.org/2000/svg"
 width="1024.000000pt" height="1024.000000pt" viewBox="0 0 1024.000000 1024.000000"
 preserveAspectRatio="xMidYMid meet">

<g transform="translate(0.000000,1024.000000) scale(0.100000,-0.100000)"
fill="#000000" stroke="none">
<path d="M1490 7955 c-78 -19 -125 -41 -201 -91 -114 -75 -199 -189 -247 -328
l-27 -81 0 -2320 c0 -1942 2 -2329 14 -2375 59 -233 246 -416 477 -465 105
-22 7123 -22 7229 0 218 46 408 229 472 455 17 62 18 164 18 2375 0 2204 -1
2313 -18 2374 -52 182 -169 326 -332 407 -140 69 162 64 -3770 63 -2952 -1
-3569 -3 -3615 -14z m7263 -299 c68 -35 130 -98 160 -164 21 -44 22 -64 25
-337 l3 -290 -3820 0 -3821 0 0 271 c0 302 6 341 63 415 45 59 98 99 159 120
51 18 184 18 3613 16 l3560 -2 58 -29z m185 -2958 l-3 -1883 -22 -47 c-32 -71
-103 -141 -176 -174 l-62 -29 -3515 -3 c-2535 -2 -3534 0 -3582 8 -85 15 -160
59 -210 125 -73 96 -68 -57 -68 2017 l0 1868 3820 0 3820 0 -2 -1882z"/>
<path d="M1888 5852 c-120 -120 -135 -89 214 -439 l293 -293 -293 -293 c-347
-348 -333 -320 -219 -433 74 -74 107 -91 155 -79 18 4 156 135 410 388 356
356 382 385 382 417 0 32 -26 61 -388 422 l-387 388 -44 0 c-42 0 -49 -4 -123
-78z"/>
<path d="M4060 4885 l0 -775 131 0 131 0 -4 70 c-3 68 4 90 17 51 9 -30 72
-81 134 -109 43 -20 76 -26 151 -30 204 -10 360 78 445 250 45 92 65 187 65
310 0 348 -185 569 -480 571 -129 1 -236 -41 -294 -115 l-26 -33 0 293 0 292
-135 0 -135 0 0 -775z m625 76 c54 -24 120 -100 142 -164 24 -70 24 -213 0
-283 -22 -63 -76 -128 -131 -156 -30 -16 -59 -22 -111 -22 -85 0 -136 23 -189
86 -46 54 -66 120 -66 223 0 202 101 335 255 335 37 0 76 -8 100 -19z"/>
<path d="M7540 4885 l0 -775 140 0 140 0 0 345 c0 323 1 348 21 399 25 69 74
111 145 127 71 16 144 -2 195 -48 65 -59 69 -86 69 -480 l0 -343 140 0 140 0
0 380 c0 239 -4 399 -11 432 -15 72 -64 161 -112 204 -158 144 -457 126 -557
-33 l-30 -47 0 307 0 307 -140 0 -140 0 0 -775z"/>
<path d="M5680 5220 c-170 -27 -294 -112 -345 -236 -13 -32 -21 -62 -17 -65 9
-9 221 -99 232 -99 4 0 10 14 14 32 3 17 18 46 32 65 40 53 77 67 174 68 93 0
135 -16 172 -66 23 -31 41 -149 24 -154 -6 -2 -92 -9 -192 -15 -291 -18 -386
-48 -451 -144 -44 -64 -56 -115 -51 -212 4 -67 10 -90 35 -135 109 -195 457
-238 626 -77 22 21 41 38 43 38 1 0 6 -25 9 -55 l7 -55 132 0 132 0 -4 373
c-4 415 -11 478 -63 558 -75 117 -183 170 -370 182 -46 3 -109 2 -139 -3z
m285 -756 c-8 -46 -77 -119 -130 -140 -63 -24 -190 -16 -233 15 -48 33 -59
100 -27 161 26 50 64 62 235 74 l155 11 3 -45 c2 -25 1 -59 -3 -76z"/>
<path d="M6792 5219 c-204 -31 -329 -147 -340 -317 -12 -191 100 -288 392
-337 128 -22 181 -41 211 -76 52 -63 20 -152 -63 -177 -49 -15 -135 -15 -185
-1 -47 13 -106 63 -124 106 -7 18 -19 33 -26 33 -7 0 -62 -9 -122 -20 -60 -11
-111 -20 -113 -20 -10 0 10 -85 28 -121 67 -130 224 -200 450 -200 226 0 364
65 437 204 24 45 28 63 28 142 0 74 -4 98 -22 131 -31 58 -76 100 -142 133
-66 33 -108 44 -258 71 -132 23 -172 38 -202 76 -27 35 -23 85 9 119 39 41
141 57 223 34 45 -12 115 -72 123 -105 5 -19 11 -22 32 -18 15 3 70 11 122 17
l95 13 -3 35 c-6 82 -81 183 -171 229 -89 45 -259 67 -379 49z"/>
<path d="M2834 4556 c-17 -8 -34 -21 -38 -31 -3 -9 -6 -70 -6 -134 0 -105 2
-121 21 -145 l20 -26 375 0 c229 0 383 4 394 10 29 15 38 66 36 183 -4 165 31
151 -409 154 -289 2 -368 0 -393 -11z"/>
</g>
</svg>
