<?xml version="1.0" encoding="UTF-8"?>
<!DOCTYPE svg PUBLIC "-//W3C//DTD SVG 1.1//EN" "http://www.w3.org/Graphics/SVG/1.1/DTD/svg11.dtd">
<svg xmlns="http://www.w3.org/2000/svg" version="1.1" width="72px" height="82px" style="shape-rendering:geometricPrecision; text-rendering:geometricPrecision; image-rendering:optimizeQuality; fill-rule:evenodd; clip-rule:evenodd" xmlns:xlink="http://www.w3.org/1999/xlink">
<g><path style="opacity:1" fill="#06070a" d="M 23.5,-0.5 C 31.5,-0.5 39.5,-0.5 47.5,-0.5C 50.1492,1.44702 51.8159,4.11368 52.5,7.5C 52.1667,7.5 51.8333,7.5 51.5,7.5C 50.5902,5.98123 49.7568,4.31456 49,2.5C 47.9887,1.66337 46.8221,1.33003 45.5,1.5C 37.8261,1.33365 30.1594,1.50031 22.5,2C 21.944,2.38258 21.6107,2.88258 21.5,3.5C 20.7315,5.66735 19.7315,7.83402 18.5,10C 13.1771,10.4994 7.84372,10.666 2.5,10.5C 1.50838,10.6716 0.841711,10.3382 0.5,9.5C 6.31004,8.51045 12.31,8.17711 18.5,8.5C 18.4976,4.45423 20.1643,1.45423 23.5,-0.5 Z"/></g>
<g><path style="opacity:1" fill="#1e242a" d="M 45.5,1.5 C 45.5,2.16667 45.5,2.83333 45.5,3.5C 38.5,3.5 31.5,3.5 24.5,3.5C 23.7978,2.88432 22.7978,2.88432 21.5,3.5C 21.6107,2.88258 21.944,2.38258 22.5,2C 30.1594,1.50031 37.8261,1.33365 45.5,1.5 Z"/></g>
<g><path style="opacity:1" fill="#010203" d="M 24.5,3.5 C 31.5,3.5 38.5,3.5 45.5,3.5C 47.6824,4.82325 48.3491,6.48992 47.5,8.5C 46.9717,7.27935 46.305,6.11268 45.5,5C 38.8417,4.50042 32.175,4.33375 25.5,4.5C 24.8333,4.5 24.5,4.16667 24.5,3.5 Z"/></g>
<g><path style="opacity:1" fill="#05080c" d="M 23.5,7.5 C 30.6476,8.49163 37.9809,8.82497 45.5,8.5C 45.6107,9.11742 45.944,9.61742 46.5,10C 39.1742,10.4997 31.8409,10.6663 24.5,10.5C 23.8826,10.3893 23.3826,10.056 23,9.5C 22.2966,7.64927 22.4632,6.9826 23.5,7.5 Z"/></g>
<g><path style="opacity:1" fill="#030407" d="M 51.5,7.5 C 51.8333,7.5 52.1667,7.5 52.5,7.5C 58.7329,8.20288 65.0662,8.86954 71.5,9.5C 71.5,10.8333 71.5,12.1667 71.5,13.5C 70.609,14.1098 69.609,14.4431 68.5,14.5C 68.3893,13.8826 68.056,13.3826 67.5,13C 68.624,12.7508 69.624,12.2508 70.5,11.5C 64.5275,10.6697 58.5275,10.1697 52.5,10C 51.7476,9.32924 51.4142,8.4959 51.5,7.5 Z"/></g>
<g><path style="opacity:1" fill="#1b2028" d="M 24.5,3.5 C 24.5,4.16667 24.8333,4.5 25.5,4.5C 25.0679,5.70951 24.4013,6.70951 23.5,7.5C 22.4632,6.9826 22.2966,7.64927 23,9.5C 23.3826,10.056 23.8826,10.3893 24.5,10.5C 26.5,11.1667 28.5,11.8333 30.5,12.5C 23.8333,12.5 17.1667,12.5 10.5,12.5C 7.83333,11.8333 5.16667,11.1667 2.5,10.5C 7.84372,10.666 13.1771,10.4994 18.5,10C 19.7315,7.83402 20.7315,5.66735 21.5,3.5C 22.7978,2.88432 23.7978,2.88432 24.5,3.5 Z"/></g>
<g><path style="opacity:1" fill="#1a2028" d="M 45.5,1.5 C 46.8221,1.33003 47.9887,1.66337 49,2.5C 49.7568,4.31456 50.5902,5.98123 51.5,7.5C 51.4142,8.4959 51.7476,9.32924 52.5,10C 58.5275,10.1697 64.5275,10.6697 70.5,11.5C 69.624,12.2508 68.624,12.7508 67.5,13C 68.056,13.3826 68.3893,13.8826 68.5,14.5C 67.8333,14.5 67.1667,14.5 66.5,14.5C 64.942,23.6207 64.2753,32.9541 64.5,42.5C 63.8333,41.1667 63.1667,39.8333 62.5,38.5C 63.1029,30.5013 63.2696,22.5013 63,14.5C 62.7679,15.7375 62.2679,16.7375 61.5,17.5C 61.7373,16.209 61.404,15.209 60.5,14.5C 60.6107,13.8826 60.944,13.3826 61.5,13C 51.172,12.5002 40.8387,12.3335 30.5,12.5C 28.5,11.8333 26.5,11.1667 24.5,10.5C 31.8409,10.6663 39.1742,10.4997 46.5,10C 45.944,9.61742 45.6107,9.11742 45.5,8.5C 46.1667,8.5 46.8333,8.5 47.5,8.5C 48.3491,6.48992 47.6824,4.82325 45.5,3.5C 45.5,2.83333 45.5,2.16667 45.5,1.5 Z"/></g>
<g><path style="opacity:1" fill="#080b10" d="M 10.5,12.5 C 17.1667,12.5 23.8333,12.5 30.5,12.5C 40.8387,12.3335 51.172,12.5002 61.5,13C 60.944,13.3826 60.6107,13.8826 60.5,14.5C 43.8333,14.5 27.1667,14.5 10.5,14.5C 10.3257,21.5352 10.6591,28.5352 11.5,35.5C 10.5269,37.9479 10.1936,40.6146 10.5,43.5C 9.5062,34.0144 9.17287,24.3478 9.5,14.5C 9.83333,13.8333 10.1667,13.1667 10.5,12.5 Z"/></g>
<g><path style="opacity:1" fill="#161a1f" d="M -0.5,9.5 C -0.166667,9.5 0.166667,9.5 0.5,9.5C 0.841711,10.3382 1.50838,10.6716 2.5,10.5C 5.16667,11.1667 7.83333,11.8333 10.5,12.5C 10.1667,13.1667 9.83333,13.8333 9.5,14.5C 8.83333,20.5 8.16667,26.5 7.5,32.5C 7.53928,30.7761 7.20595,30.4427 6.5,31.5C 5.51114,26.0247 5.1778,20.358 5.5,14.5C 3.3792,14.6747 1.3792,14.3414 -0.5,13.5C -0.5,12.1667 -0.5,10.8333 -0.5,9.5 Z"/></g>
<g><path style="opacity:1" fill="#020306" d="M 62.5,38.5 C 62.3364,44.1667 62.0031,44.5 61.5,39.5C 61.5,32.1667 61.5,24.8333 61.5,17.5C 62.2679,16.7375 62.7679,15.7375 63,14.5C 63.2696,22.5013 63.1029,30.5013 62.5,38.5 Z"/></g>
<g><path style="opacity:1" fill="#010100" d="M 38.5,65.5 C 38.1667,65.5 37.8333,65.5 37.5,65.5C 37.8325,52.15 37.4992,38.8167 36.5,25.5C 35.4777,25.8555 34.811,26.5222 34.5,27.5C 34.1667,27.5 33.8333,27.5 33.5,27.5C 34.0483,24.9162 35.715,23.9162 38.5,24.5C 38.5,38.1667 38.5,51.8333 38.5,65.5 Z"/></g>
<g><path style="opacity:1" fill="#070809" d="M 47.5,24.5 C 47.5,25.1667 47.8333,25.5 48.5,25.5C 47.5192,38.7541 47.1858,52.0875 47.5,65.5C 48.5,65.5 49.5,65.5 50.5,65.5C 50.8333,65.5 51.1667,65.5 51.5,65.5C 50.4151,67.5822 48.9151,67.9156 47,66.5C 46.1727,52.3272 46.3393,38.3272 47.5,24.5 Z"/></g>
<g><path style="opacity:1" fill="#000001" d="M 47.5,24.5 C 48.8333,24.5 50.1667,24.5 51.5,24.5C 51.5,38.1667 51.5,51.8333 51.5,65.5C 51.1667,65.5 50.8333,65.5 50.5,65.5C 51.1481,51.7914 50.4814,38.4581 48.5,25.5C 47.8333,25.5 47.5,25.1667 47.5,24.5 Z"/></g>
<g><path style="opacity:1" fill="#050607" d="M 33.5,27.5 C 33.8333,27.5 34.1667,27.5 34.5,27.5C 34.5,40.1667 34.5,52.8333 34.5,65.5C 35.5,65.5 36.5,65.5 37.5,65.5C 37.8333,65.5 38.1667,65.5 38.5,65.5C 37.4151,67.5822 35.9151,67.9156 34,66.5C 33.5001,53.5043 33.3334,40.5043 33.5,27.5 Z"/></g>
<g><path style="opacity:1" fill="#1d222a" d="M 9.5,14.5 C 9.17287,24.3478 9.5062,34.0144 10.5,43.5C 10.5,45.8333 10.5,48.1667 10.5,50.5C 9.83333,50.5 9.16667,50.5 8.5,50.5C 8.40749,44.4836 8.07416,38.4836 7.5,32.5C 8.16667,26.5 8.83333,20.5 9.5,14.5 Z"/></g>
<g><path style="opacity:1" fill="#08090c" d="M 66.5,14.5 C 66.3685,33.9857 65.5352,53.6523 64,73.5C 63.3028,75.5844 62.1361,77.2511 60.5,78.5C 60.1667,78.5 59.8333,78.5 59.5,78.5C 61.1804,76.4726 62.3471,74.1392 63,71.5C 63.4992,66.8452 63.6658,62.1785 63.5,57.5C 63.6133,52.482 63.9466,47.482 64.5,42.5C 64.2753,32.9541 64.942,23.6207 66.5,14.5 Z"/></g>
<g><path style="opacity:1" fill="#060609" d="M 11.5,35.5 C 12.0552,47.1589 12.3885,58.8255 12.5,70.5C 11.1873,64.0408 10.5207,57.3741 10.5,50.5C 10.5,48.1667 10.5,45.8333 10.5,43.5C 10.1936,40.6146 10.5269,37.9479 11.5,35.5 Z"/></g>
<g><path style="opacity:1" fill="#1f232c" d="M 48.5,25.5 C 50.4814,38.4581 51.1481,51.7914 50.5,65.5C 49.5,65.5 48.5,65.5 47.5,65.5C 47.1858,52.0875 47.5192,38.7541 48.5,25.5 Z"/></g>
<g><path style="opacity:1" fill="#000104" d="M 25.5,25.5 C 25.8288,38.6774 25.4955,51.6774 24.5,64.5C 25.147,51.4559 24.4803,38.7892 22.5,26.5C 21.8333,33.5 21.1667,40.5 20.5,47.5C 20.3337,40.1591 20.5003,32.8258 21,25.5C 22.6155,24.1991 24.1155,24.1991 25.5,25.5 Z"/></g>
<g><path style="opacity:1" fill="#13161a" d="M 62.5,38.5 C 63.1667,39.8333 63.8333,41.1667 64.5,42.5C 63.9466,47.482 63.6133,52.482 63.5,57.5C 61.7397,60.7006 60.9064,64.3673 61,68.5C 60.5172,67.552 60.3505,66.552 60.5,65.5C 60.1736,56.6506 60.507,47.9839 61.5,39.5C 62.0031,44.5 62.3364,44.1667 62.5,38.5 Z"/></g>
<g><path style="opacity:1" fill="#0c0f13" d="M 25.5,25.5 C 26.6604,38.6603 26.827,51.9936 26,65.5C 24.806,67.5254 23.306,67.8587 21.5,66.5C 20.5037,60.2015 20.1703,53.8682 20.5,47.5C 21.1667,40.5 21.8333,33.5 22.5,26.5C 22.1675,39.5171 22.5009,52.5171 23.5,65.5C 24.1067,65.3764 24.44,65.0431 24.5,64.5C 25.4955,51.6774 25.8288,38.6774 25.5,25.5 Z"/></g>
<g><path style="opacity:1" fill="#1b2129" d="M 22.5,26.5 C 24.4803,38.7892 25.147,51.4559 24.5,64.5C 24.44,65.0431 24.1067,65.3764 23.5,65.5C 22.5009,52.5171 22.1675,39.5171 22.5,26.5 Z"/></g>
<g><path style="opacity:1" fill="#1a1f25" d="M 37.5,65.5 C 36.5,65.5 35.5,65.5 34.5,65.5C 34.5,52.8333 34.5,40.1667 34.5,27.5C 34.811,26.5222 35.4777,25.8555 36.5,25.5C 37.4992,38.8167 37.8325,52.15 37.5,65.5 Z"/></g>
<g><path style="opacity:1" fill="#1a1e26" d="M 8.5,50.5 C 9.16667,50.5 9.83333,50.5 10.5,50.5C 10.5207,57.3741 11.1873,64.0408 12.5,70.5C 13.404,71.209 13.7373,72.209 13.5,73.5C 14.8635,76.9833 17.5301,78.65 21.5,78.5C 21.5,78.8333 21.5,79.1667 21.5,79.5C 20.1667,79.5 18.8333,79.5 17.5,79.5C 15.3146,79.2964 13.3146,78.6298 11.5,77.5C 9.6044,68.6631 8.6044,59.6631 8.5,50.5 Z"/></g>
<g><path style="opacity:1" fill="#0a0b0f" d="M 7.5,32.5 C 8.07416,38.4836 8.40749,44.4836 8.5,50.5C 8.6044,59.6631 9.6044,68.6631 11.5,77.5C 9.30566,75.7786 8.139,73.4453 8,70.5C 7.20044,57.5093 6.70044,44.5093 6.5,31.5C 7.20595,30.4427 7.53928,30.7761 7.5,32.5 Z"/></g>
<g><path style="opacity:1" fill="#05060a" d="M 59.5,69.5 C 60.9116,73.8218 59.2449,76.6551 54.5,78C 43.505,78.4998 32.505,78.6665 21.5,78.5C 17.5301,78.65 14.8635,76.9833 13.5,73.5C 14.6266,74.1217 15.6266,74.955 16.5,76C 29.5,76.6667 42.5,76.6667 55.5,76C 58.2224,74.7275 59.5557,72.5608 59.5,69.5 Z"/></g>
<g><path style="opacity:1" fill="#1d222a" d="M 63.5,57.5 C 63.6658,62.1785 63.4992,66.8452 63,71.5C 62.3471,74.1392 61.1804,76.4726 59.5,78.5C 46.913,79.4798 34.2464,79.8131 21.5,79.5C 21.5,79.1667 21.5,78.8333 21.5,78.5C 32.505,78.6665 43.505,78.4998 54.5,78C 59.2449,76.6551 60.9116,73.8218 59.5,69.5C 59.2322,67.901 59.5655,66.5676 60.5,65.5C 60.3505,66.552 60.5172,67.552 61,68.5C 60.9064,64.3673 61.7397,60.7006 63.5,57.5 Z"/></g>
<g><path style="opacity:1" fill="#12171d" d="M 59.5,78.5 C 59.8333,78.5 60.1667,78.5 60.5,78.5C 59.6935,79.7281 58.6935,80.7281 57.5,81.5C 57.1667,81.5 56.8333,81.5 56.5,81.5C 43.5,80.8333 30.5,80.1667 17.5,79.5C 18.8333,79.5 20.1667,79.5 21.5,79.5C 34.2464,79.8131 46.913,79.4798 59.5,78.5 Z"/></g>
<g><path style="opacity:1" fill="#020204" d="M 11.5,77.5 C 13.3146,78.6298 15.3146,79.2964 17.5,79.5C 30.5,80.1667 43.5,80.8333 56.5,81.5C 42.8333,81.5 29.1667,81.5 15.5,81.5C 13.8608,80.5275 12.5274,79.1942 11.5,77.5 Z"/></g>
</svg>
