<?xml version="1.0" encoding="UTF-8"?>
<!DOCTYPE svg PUBLIC "-//W3C//DTD SVG 1.1//EN" "http://www.w3.org/Graphics/SVG/1.1/DTD/svg11.dtd">
<svg xmlns="http://www.w3.org/2000/svg" version="1.1" width="79px" height="69px" style="shape-rendering:geometricPrecision; text-rendering:geometricPrecision; image-rendering:optimizeQuality; fill-rule:evenodd; clip-rule:evenodd" xmlns:xlink="http://www.w3.org/1999/xlink">
<g><path style="opacity:1" fill="#282c32" d="M 39.5,9.5 C 38.5,10.1667 37.5,10.8333 36.5,11.5C 35.8333,11.5 35.5,11.8333 35.5,12.5C 34.3263,11.4863 33.6596,10.153 33.5,8.5C 33.2615,5.85167 31.9282,4.01834 29.5,3C 22.1667,2.33333 14.8333,2.33333 7.5,3C 5.01665,3.56661 4.34999,4.73327 5.5,6.5C 5.5,10.5 5.5,14.5 5.5,18.5C 28.1667,18.5 50.8333,18.5 73.5,18.5C 73.5,18.8333 73.5,19.1667 73.5,19.5C 50.6605,19.1692 27.9939,19.5025 5.5,20.5C 5.5,21.1667 5.5,21.8333 5.5,22.5C 4.5,22.8333 3.83333,23.5 3.5,24.5C 2.19299,22.7768 2.19299,20.9435 3.5,19C 2.90558,18.5357 2.23891,18.369 1.5,18.5C 1.20001,13.9014 1.53335,9.40142 2.5,5C 1.90558,4.53566 1.23891,4.36899 0.5,4.5C 0.5,3.83333 0.833333,3.5 1.5,3.5C 3.59321,2.95531 5.59321,2.12197 7.5,1C 15.5,0.333333 23.5,0.333333 31.5,1C 34.1059,2.93842 35.9392,5.43842 37,8.5C 37.6708,9.25244 38.5041,9.58577 39.5,9.5 Z"/></g>
<g><path style="opacity:1" fill="#030509" d="M 33.5,8.5 C 32.1634,7.68512 31.1634,6.51845 30.5,5C 22.5,4.33333 14.5,4.33333 6.5,5C 5.94404,5.38258 5.61071,5.88258 5.5,6.5C 4.34999,4.73327 5.01665,3.56661 7.5,3C 14.8333,2.33333 22.1667,2.33333 29.5,3C 31.9282,4.01834 33.2615,5.85167 33.5,8.5 Z"/></g>
<g><path style="opacity:1" fill="#080a0d" d="M 5.5,-0.5 C 14.5,-0.5 23.5,-0.5 32.5,-0.5C 34.5296,1.53659 36.1963,3.86993 37.5,6.5C 48.8187,7.33247 60.152,7.83247 71.5,8C 74.1064,8.79181 76.1064,10.2918 77.5,12.5C 76.8333,12.5 76.5,12.8333 76.5,13.5C 75.0149,15.2488 74.0149,17.2488 73.5,19.5C 73.5,19.1667 73.5,18.8333 73.5,18.5C 73.607,16.0968 72.607,14.2635 70.5,13C 58.8381,12.5001 47.1714,12.3335 35.5,12.5C 35.5,11.8333 35.8333,11.5 36.5,11.5C 48.5506,11.1872 60.5506,11.5205 72.5,12.5C 73.7112,11.7261 73.7112,10.8928 72.5,10C 61.505,9.50015 50.505,9.33349 39.5,9.5C 38.5041,9.58577 37.6708,9.25244 37,8.5C 35.9392,5.43842 34.1059,2.93842 31.5,1C 23.5,0.333333 15.5,0.333333 7.5,1C 5.59321,2.12197 3.59321,2.95531 1.5,3.5C 2.52743,1.80584 3.86076,0.472504 5.5,-0.5 Z"/></g>
<g><path style="opacity:1" fill="#1d232a" d="M 39.5,9.5 C 50.505,9.33349 61.505,9.50015 72.5,10C 73.7112,10.8928 73.7112,11.7261 72.5,12.5C 60.5506,11.5205 48.5506,11.1872 36.5,11.5C 37.5,10.8333 38.5,10.1667 39.5,9.5 Z"/></g>
<g><path style="opacity:1" fill="#21282f" d="M 5.5,20.5 C 22.5033,20.3334 39.5033,20.5001 56.5,21C 48.3228,21.1708 40.3228,21.6708 32.5,22.5C 23.5,22.5 14.5,22.5 5.5,22.5C 5.5,21.8333 5.5,21.1667 5.5,20.5 Z"/></g>
<g><path style="opacity:1" fill="#171c22" d="M 76.5,13.5 C 76.5,28.1667 76.5,42.8333 76.5,57.5C 76.1667,57.5 75.8333,57.5 75.5,57.5C 75.6665,46.495 75.4998,35.495 75,24.5C 74.6174,23.944 74.1174,23.6107 73.5,23.5C 60.0102,22.5043 46.3435,22.171 32.5,22.5C 40.3228,21.6708 48.3228,21.1708 56.5,21C 39.5033,20.5001 22.5033,20.3334 5.5,20.5C 27.9939,19.5025 50.6605,19.1692 73.5,19.5C 74.0149,17.2488 75.0149,15.2488 76.5,13.5 Z"/></g>
<g><path style="opacity:1" fill="#131416" d="M 5.5,22.5 C 14.5,22.5 23.5,22.5 32.5,22.5C 46.3435,22.171 60.0102,22.5043 73.5,23.5C 50.6605,23.1692 27.9939,23.5025 5.5,24.5C 5.45073,36.9796 5.45073,49.6463 5.5,62.5C 4.88258,62.3893 4.38258,62.056 4,61.5C 3.50012,49.1712 3.33346,36.8378 3.5,24.5C 3.83333,23.5 4.5,22.8333 5.5,22.5 Z"/></g>
<g><path style="opacity:1" fill="#111316" d="M 5.5,24.5 C 27.9939,23.5025 50.6605,23.1692 73.5,23.5C 74.1174,23.6107 74.6174,23.944 75,24.5C 75.4998,35.495 75.6665,46.495 75.5,57.5C 74.9446,60.7872 73.278,63.2872 70.5,65C 49.8333,65.6667 29.1667,65.6667 8.5,65C 7.83333,64.6667 7.16667,64.3333 6.5,64C 6.72845,63.6012 7.06178,63.4346 7.5,63.5C 28.8791,63.822 50.2124,63.4887 71.5,62.5C 72.1924,61.9747 72.6924,61.3081 73,60.5C 73.4999,48.5046 73.6665,36.5046 73.5,24.5C 50.8333,24.5 28.1667,24.5 5.5,24.5 Z"/></g>
<g><path style="opacity:1" fill="#06070b" d="M 77.5,12.5 C 77.5,13.1667 77.8333,13.5 78.5,13.5C 78.5,29.8333 78.5,46.1667 78.5,62.5C 77.5275,64.1392 76.1942,65.4726 74.5,66.5C 74.1667,66.5 73.8333,66.5 73.5,66.5C 76.0762,64.1125 77.0762,61.1125 76.5,57.5C 76.5,42.8333 76.5,28.1667 76.5,13.5C 76.5,12.8333 76.8333,12.5 77.5,12.5 Z"/></g>
<g><path style="opacity:1" fill="#1d232a" d="M 1.5,18.5 C 2.23891,18.369 2.90558,18.5357 3.5,19C 2.19299,20.9435 2.19299,22.7768 3.5,24.5C 3.33346,36.8378 3.50012,49.1712 4,61.5C 4.38258,62.056 4.88258,62.3893 5.5,62.5C 6.49162,62.3284 7.15829,62.6618 7.5,63.5C 7.06178,63.4346 6.72845,63.6012 6.5,64C 7.16667,64.3333 7.83333,64.6667 8.5,65C 29.1667,65.6667 49.8333,65.6667 70.5,65C 73.278,63.2872 74.9446,60.7872 75.5,57.5C 75.8333,57.5 76.1667,57.5 76.5,57.5C 77.0762,61.1125 76.0762,64.1125 73.5,66.5C 51.1667,66.5 28.8333,66.5 6.5,66.5C 4.24753,66.0844 2.74753,64.751 2,62.5C 1.50009,47.8371 1.33342,33.1705 1.5,18.5 Z"/></g>
<g><path style="opacity:1" fill="#080b10" d="M 6.5,66.5 C 28.8333,66.5 51.1667,66.5 73.5,66.5C 73.8333,66.5 74.1667,66.5 74.5,66.5C 73.8333,67.1667 73.1667,67.8333 72.5,68.5C 72.1667,68.5 71.8333,68.5 71.5,68.5C 49.8333,67.8333 28.1667,67.1667 6.5,66.5 Z"/></g>
<g><path style="opacity:1" fill="#121315" d="M 0.5,4.5 C 1.23891,4.36899 1.90558,4.53566 2.5,5C 1.53335,9.40142 1.20001,13.9014 1.5,18.5C 1.33342,33.1705 1.50009,47.8371 2,62.5C 2.74753,64.751 4.24753,66.0844 6.5,66.5C 28.1667,67.1667 49.8333,67.8333 71.5,68.5C 49.5,68.5 27.5,68.5 5.5,68.5C 2.75333,66.7573 0.753325,64.4239 -0.5,61.5C -0.5,43.1667 -0.5,24.8333 -0.5,6.5C 0.338246,6.15829 0.67158,5.49162 0.5,4.5 Z"/></g>
</svg>
