<?xml version="1.0" encoding="UTF-8"?>
<!DOCTYPE svg PUBLIC "-//W3C//DTD SVG 1.1//EN" "http://www.w3.org/Graphics/SVG/1.1/DTD/svg11.dtd">
<svg xmlns="http://www.w3.org/2000/svg" version="1.1" width="63px" height="78px" style="shape-rendering:geometricPrecision; text-rendering:geometricPrecision; image-rendering:optimizeQuality; fill-rule:evenodd; clip-rule:evenodd" xmlns:xlink="http://www.w3.org/1999/xlink">
<g><path style="opacity:1" fill="#1b2028" d="M 40.5,0.5 C 42.0269,0.427017 43.0269,1.09368 43.5,2.5C 42.1751,3.95256 41.3418,3.61923 41,1.5C 40.2588,2.64055 39.4255,2.64055 38.5,1.5C 38.1667,1.66667 37.8333,1.83333 37.5,2C 38.3805,2.7083 39.0472,3.54163 39.5,4.5C 39.1667,4.5 38.8333,4.5 38.5,4.5C 37.7109,4.21719 37.0442,3.71719 36.5,3C 25.3255,2.17431 14.3255,2.34097 3.5,3.5C 3.5,12.1667 3.5,20.8333 3.5,29.5C 2.77842,29.0825 2.27842,28.4158 2,27.5C 1.50038,20.5079 1.33371,13.5079 1.5,6.5C 1.17798,4.27759 1.84464,2.44425 3.5,1C 15.8288,0.500122 28.1622,0.333455 40.5,0.5 Z"/></g>
<g><path style="opacity:1" fill="#04060b" d="M 3.5,3.5 C 14.3255,2.34097 25.3255,2.17431 36.5,3C 37.0442,3.71719 37.7109,4.21719 38.5,4.5C 38.5,10.8333 38.5,17.1667 38.5,23.5C 44.8333,23.5 51.1667,23.5 57.5,23.5C 58.1667,23.1667 58.8333,22.8333 59.5,22.5C 59.8297,38.6754 59.4964,54.6754 58.5,70.5C 58.8294,55.324 58.4961,40.324 57.5,25.5C 51.0126,24.6717 44.346,24.1717 37.5,24C 36.5223,17.5898 36.189,11.0898 36.5,4.5C 26.1667,4.5 15.8333,4.5 5.5,4.5C 5.15829,3.66175 4.49162,3.32842 3.5,3.5 Z"/></g>
<g><path style="opacity:1" fill="#000000" d="M 3.5,3.5 C 4.49162,3.32842 5.15829,3.66175 5.5,4.5C 4.16667,26.8333 4.16667,49.1667 5.5,71.5C 5.5,71.8333 5.5,72.1667 5.5,72.5C 3.51716,58.539 2.8505,44.2057 3.5,29.5C 3.5,20.8333 3.5,12.1667 3.5,3.5 Z"/></g>
<g><path style="opacity:1" fill="#12161a" d="M 43.5,2.5 C 44.5,3.83333 45.5,5.16667 46.5,6.5C 44.9153,7.00238 44.4153,8.00238 45,9.5C 48.7729,12.7635 51.9396,16.4302 54.5,20.5C 50.5874,21.5958 46.5874,21.7625 42.5,21C 41.944,20.6174 41.6107,20.1174 41.5,19.5C 40.673,14.6545 40.0063,9.65449 39.5,4.5C 39.0472,3.54163 38.3805,2.7083 37.5,2C 37.8333,1.83333 38.1667,1.66667 38.5,1.5C 39.4255,2.64055 40.2588,2.64055 41,1.5C 41.3418,3.61923 42.1751,3.95256 43.5,2.5 Z M 41.5,19.5 C 41.3347,15.8183 41.5014,12.1516 42,8.5C 45.5,12 49,15.5 52.5,19C 48.8484,19.4986 45.1817,19.6653 41.5,19.5 Z"/></g>
<g><path style="opacity:1" fill="#020202" d="M 2.5,-0.5 C 15.1667,-0.5 27.8333,-0.5 40.5,-0.5C 40.5,-0.166667 40.5,0.166667 40.5,0.5C 28.1622,0.333455 15.8288,0.500122 3.5,1C 1.84464,2.44425 1.17798,4.27759 1.5,6.5C 0.833333,28.5 0.166667,50.5 -0.5,72.5C -0.5,49.1667 -0.5,25.8333 -0.5,2.5C 0.833333,1.83333 1.83333,0.833333 2.5,-0.5 Z"/></g>
<g><path style="opacity:1" fill="#1d2229" d="M 46.5,6.5 C 49.7642,8.09413 52.4309,10.4275 54.5,13.5C 54.0618,13.4346 53.7284,13.6012 53.5,14C 56,16.5 58.5,19 61,21.5C 61.4999,37.8299 61.6666,54.1633 61.5,70.5C 60.8333,54.5 60.1667,38.5 59.5,22.5C 58.8333,22.8333 58.1667,23.1667 57.5,23.5C 56.3065,22.7281 55.3065,21.7281 54.5,20.5C 51.9396,16.4302 48.7729,12.7635 45,9.5C 44.4153,8.00238 44.9153,7.00238 46.5,6.5 Z"/></g>
<g><path style="opacity:1" fill="#1d222a" d="M 38.5,4.5 C 38.8333,4.5 39.1667,4.5 39.5,4.5C 40.0063,9.65449 40.673,14.6545 41.5,19.5C 41.6107,20.1174 41.944,20.6174 42.5,21C 46.5874,21.7625 50.5874,21.5958 54.5,20.5C 55.3065,21.7281 56.3065,22.7281 57.5,23.5C 51.1667,23.5 44.8333,23.5 38.5,23.5C 38.5,17.1667 38.5,10.8333 38.5,4.5 Z"/></g>
<g><path style="opacity:1" fill="#010101" d="M 54.5,13.5 C 57.1667,15.8333 59.8333,18.1667 62.5,20.5C 62.5,38.1667 62.5,55.8333 62.5,73.5C 61.8333,73.5 61.5,73.8333 61.5,74.5C 60.6457,73.3684 60.6457,72.035 61.5,70.5C 61.6666,54.1633 61.4999,37.8299 61,21.5C 58.5,19 56,16.5 53.5,14C 53.7284,13.6012 54.0618,13.4346 54.5,13.5 Z"/></g>
<g><path style="opacity:1" fill="#171c24" d="M 1.5,6.5 C 1.33371,13.5079 1.50038,20.5079 2,27.5C 2.27842,28.4158 2.77842,29.0825 3.5,29.5C 2.8505,44.2057 3.51716,58.539 5.5,72.5C 5.5,72.8333 5.5,73.1667 5.5,73.5C 5.15829,74.3382 4.49162,74.6716 3.5,74.5C 2.50838,74.3284 1.84171,74.6618 1.5,75.5C 0.833333,74.8333 0.166667,74.1667 -0.5,73.5C -0.5,73.1667 -0.5,72.8333 -0.5,72.5C 0.166667,50.5 0.833333,28.5 1.5,6.5 Z"/></g>
<g><path style="opacity:1" fill="#090a0e" d="M 57.5,25.5 C 58.4961,40.324 58.8294,55.324 58.5,70.5C 58.5858,71.4959 58.2524,72.3292 57.5,73C 40.1699,73.4999 22.8365,73.6666 5.5,73.5C 5.5,73.1667 5.5,72.8333 5.5,72.5C 5.5,72.1667 5.5,71.8333 5.5,71.5C 22.8333,71.5 40.1667,71.5 57.5,71.5C 57.5,56.1667 57.5,40.8333 57.5,25.5 Z"/></g>
<g><path style="opacity:1" fill="#1a1f26" d="M 59.5,22.5 C 60.1667,38.5 60.8333,54.5 61.5,70.5C 60.6457,72.035 60.6457,73.3684 61.5,74.5C 61.1667,75.5 60.5,76.1667 59.5,76.5C 40.8333,75.8333 22.1667,75.1667 3.5,74.5C 4.49162,74.6716 5.15829,74.3382 5.5,73.5C 22.8365,73.6666 40.1699,73.4999 57.5,73C 58.2524,72.3292 58.5858,71.4959 58.5,70.5C 59.4964,54.6754 59.8297,38.6754 59.5,22.5 Z"/></g>
<g><path style="opacity:1" fill="#141418" d="M 1.5,75.5 C 1.84171,74.6618 2.50838,74.3284 3.5,74.5C 22.1667,75.1667 40.8333,75.8333 59.5,76.5C 58.8333,76.5 58.5,76.8333 58.5,77.5C 40.1667,77.5 21.8333,77.5 3.5,77.5C 3.16667,76.5 2.5,75.8333 1.5,75.5 Z"/></g>
</svg>
