<?xml version="1.0" encoding="UTF-8"?>
<!DOCTYPE svg PUBLIC "-//W3C//DTD SVG 1.1//EN" "http://www.w3.org/Graphics/SVG/1.1/DTD/svg11.dtd">
<svg xmlns="http://www.w3.org/2000/svg" version="1.1" width="80px" height="81px" style="shape-rendering:geometricPrecision; text-rendering:geometricPrecision; image-rendering:optimizeQuality; fill-rule:evenodd; clip-rule:evenodd" xmlns:xlink="http://www.w3.org/1999/xlink">
<g><path style="opacity:1" fill="#050609" d="M 60.5,-0.5 C 62.1667,-0.5 63.8333,-0.5 65.5,-0.5C 69.8333,4.5 74.5,9.16667 79.5,13.5C 79.5,15.5 79.5,17.5 79.5,19.5C 78.8333,19.8333 78.1667,20.1667 77.5,20.5C 77.5,20.1667 77.5,19.8333 77.5,19.5C 79.2529,16.4289 78.5862,14.0956 75.5,12.5C 73.8333,10.1667 71.8333,8.16667 69.5,6.5C 67.7607,3.75731 65.4274,1.75731 62.5,0.5C 61.1667,1.5 59.8333,2.5 58.5,3.5C 58.5,3.16667 58.5,2.83333 58.5,2.5C 59.1667,1.5 59.8333,0.5 60.5,-0.5 Z"/></g>
<g><path style="opacity:1" fill="#1b2128" d="M 62.5,0.5 C 65.4274,1.75731 67.7607,3.75731 69.5,6.5C 68.8333,6.5 68.5,6.83333 68.5,7.5C 66.6366,5.29466 64.3033,3.96133 61.5,3.5C 62.1098,2.60895 62.4431,1.60895 62.5,0.5 Z"/></g>
<g><path style="opacity:1" fill="#010102" d="M 61.5,4.5 C 61.5,4.16667 61.5,3.83333 61.5,3.5C 64.3033,3.96133 66.6366,5.29466 68.5,7.5C 70.1667,9.83333 72.1667,11.8333 74.5,13.5C 74.8333,14.1667 75.1667,14.8333 75.5,15.5C 75.1667,15.5 74.8333,15.5 74.5,15.5C 70.5,11.8333 66.5,8.16667 62.5,4.5C 62.1667,4.5 61.8333,4.5 61.5,4.5 Z"/></g>
<g><path style="opacity:1" fill="#181d24" d="M 62.5,0.5 C 62.4431,1.60895 62.1098,2.60895 61.5,3.5C 61.5,3.83333 61.5,4.16667 61.5,4.5C 60.1667,5.5 58.8333,6.5 57.5,7.5C 56.8333,7.5 56.5,7.16667 56.5,6.5C 57.1667,5.5 57.8333,4.5 58.5,3.5C 59.8333,2.5 61.1667,1.5 62.5,0.5 Z"/></g>
<g><path style="opacity:1" fill="#191e24" d="M 56.5,6.5 C 56.5,7.16667 56.8333,7.5 57.5,7.5C 55.1667,10.1667 52.8333,12.8333 50.5,15.5C 49.8333,15.8333 49.1667,16.1667 48.5,16.5C 47.8333,16.5 47.5,16.1667 47.5,15.5C 50.1667,12.1667 53.1667,9.16667 56.5,6.5 Z"/></g>
<g><path style="opacity:1" fill="#181c24" d="M 69.5,6.5 C 71.8333,8.16667 73.8333,10.1667 75.5,12.5C 74.8333,12.5 74.5,12.8333 74.5,13.5C 72.1667,11.8333 70.1667,9.83333 68.5,7.5C 68.5,6.83333 68.8333,6.5 69.5,6.5 Z"/></g>
<g><path style="opacity:1" fill="#010204" d="M 58.5,2.5 C 58.5,2.83333 58.5,3.16667 58.5,3.5C 57.8333,4.5 57.1667,5.5 56.5,6.5C 53.1667,9.16667 50.1667,12.1667 47.5,15.5C 45.5,17.1667 43.5,18.8333 41.5,20.5C 41.1667,20.5 40.8333,20.5 40.5,20.5C 46.1667,14.1667 52.1667,8.16667 58.5,2.5 Z"/></g>
<g><path style="opacity:1" fill="#181e25" d="M 75.5,12.5 C 78.5862,14.0956 79.2529,16.4289 77.5,19.5C 76.8333,19.8333 76.1667,20.1667 75.5,20.5C 74.8333,20.5 74.1667,20.5 73.5,20.5C 74.4756,19.1851 75.4756,17.8518 76.5,16.5C 76.3764,15.8933 76.0431,15.56 75.5,15.5C 75.1667,14.8333 74.8333,14.1667 74.5,13.5C 74.5,12.8333 74.8333,12.5 75.5,12.5 Z"/></g>
<g><path style="opacity:1" fill="#050608" d="M 61.5,4.5 C 61.8333,4.5 62.1667,4.5 62.5,4.5C 59.1667,8.5 55.5,12.1667 51.5,15.5C 51.1667,15.5 50.8333,15.5 50.5,15.5C 52.8333,12.8333 55.1667,10.1667 57.5,7.5C 58.8333,6.5 60.1667,5.5 61.5,4.5 Z"/></g>
<g><path style="opacity:1" fill="#1b2027" d="M 47.5,15.5 C 47.5,16.1667 47.8333,16.5 48.5,16.5C 46.8333,18.8333 44.8333,20.8333 42.5,22.5C 42.5,21.8333 42.1667,21.5 41.5,21.5C 41.5,21.1667 41.5,20.8333 41.5,20.5C 43.5,18.8333 45.5,17.1667 47.5,15.5 Z"/></g>
<g><path style="opacity:1" fill="#000103" d="M 40.5,20.5 C 40.8333,20.5 41.1667,20.5 41.5,20.5C 41.5,20.8333 41.5,21.1667 41.5,21.5C 37.8333,24.8333 34.1667,28.1667 30.5,31.5C 30.5,31.1667 30.5,30.8333 30.5,30.5C 33.5,26.8333 36.8333,23.5 40.5,20.5 Z"/></g>
<g><path style="opacity:1" fill="#191e25" d="M 73.5,20.5 C 74.1667,20.5 74.8333,20.5 75.5,20.5C 73.1667,23.5 70.5,26.1667 67.5,28.5C 67.5,27.8333 67.5,27.1667 67.5,26.5C 69.1667,24.1667 71.1667,22.1667 73.5,20.5 Z"/></g>
<g><path style="opacity:1" fill="#030304" d="M 74.5,15.5 C 74.8333,15.5 75.1667,15.5 75.5,15.5C 76.0431,15.56 76.3764,15.8933 76.5,16.5C 75.4756,17.8518 74.4756,19.1851 73.5,20.5C 71.1667,22.1667 69.1667,24.1667 67.5,26.5C 65.1667,28.1667 63.1667,30.1667 61.5,32.5C 59.5,33.8333 57.8333,35.5 56.5,37.5C 52.5,40.8333 48.8333,44.5 45.5,48.5C 44.5,49.1667 43.5,49.8333 42.5,50.5C 42.1667,50.5 41.8333,50.5 41.5,50.5C 52.1312,39.3682 62.9646,28.3682 74,17.5C 74.4643,16.9056 74.631,16.2389 74.5,15.5 Z"/></g>
<g><path style="opacity:1" fill="#050507" d="M 77.5,19.5 C 77.5,19.8333 77.5,20.1667 77.5,20.5C 73.1667,25.5 68.5,30.1667 63.5,34.5C 63.5,34.1667 63.5,33.8333 63.5,33.5C 64.8333,31.8333 66.1667,30.1667 67.5,28.5C 70.5,26.1667 73.1667,23.5 75.5,20.5C 76.1667,20.1667 76.8333,19.8333 77.5,19.5 Z"/></g>
<g><path style="opacity:1" fill="#06070a" d="M 50.5,15.5 C 50.8333,15.5 51.1667,15.5 51.5,15.5C 47.1667,20.5 42.5,25.1667 37.5,29.5C 37.5,29.1667 37.5,28.8333 37.5,28.5C 39.1667,26.5 40.8333,24.5 42.5,22.5C 44.8333,20.8333 46.8333,18.8333 48.5,16.5C 49.1667,16.1667 49.8333,15.8333 50.5,15.5 Z"/></g>
<g><path style="opacity:1" fill="#1a1e24" d="M 41.5,21.5 C 42.1667,21.5 42.5,21.8333 42.5,22.5C 40.8333,24.5 39.1667,26.5 37.5,28.5C 35.8333,29.8333 34.1667,31.1667 32.5,32.5C 31.8333,32.5 31.1667,32.5 30.5,32.5C 30.5,32.1667 30.5,31.8333 30.5,31.5C 34.1667,28.1667 37.8333,24.8333 41.5,21.5 Z"/></g>
<g><path style="opacity:1" fill="#1a1e24" d="M 67.5,26.5 C 67.5,27.1667 67.5,27.8333 67.5,28.5C 66.1667,30.1667 64.8333,31.8333 63.5,33.5C 63.1667,33.5 62.8333,33.5 62.5,33.5C 61.8333,33.5 61.5,33.1667 61.5,32.5C 63.1667,30.1667 65.1667,28.1667 67.5,26.5 Z"/></g>
<g><path style="opacity:1" fill="#000102" d="M 30.5,30.5 C 30.5,30.8333 30.5,31.1667 30.5,31.5C 30.5,31.8333 30.5,32.1667 30.5,32.5C 27.1667,35.1667 24.1667,38.1667 21.5,41.5C 20.1667,42.5 18.8333,43.5 17.5,44.5C 17.1667,44.5 16.8333,44.5 16.5,44.5C 20.8333,39.5 25.5,34.8333 30.5,30.5 Z"/></g>
<g><path style="opacity:1" fill="#191e25" d="M 30.5,32.5 C 31.1667,32.5 31.8333,32.5 32.5,32.5C 29.1667,36.5 25.5,40.1667 21.5,43.5C 21.5,42.8333 21.5,42.1667 21.5,41.5C 24.1667,38.1667 27.1667,35.1667 30.5,32.5 Z"/></g>
<g><path style="opacity:1" fill="#181e25" d="M 61.5,32.5 C 61.5,33.1667 61.8333,33.5 62.5,33.5C 61.1667,35.5 59.5,37.1667 57.5,38.5C 56.8333,38.5 56.5,38.1667 56.5,37.5C 57.8333,35.5 59.5,33.8333 61.5,32.5 Z"/></g>
<g><path style="opacity:1" fill="#040506" d="M 37.5,28.5 C 37.5,28.8333 37.5,29.1667 37.5,29.5C 32.1667,35.5 26.5,41.1667 20.5,46.5C 20.5,46.1667 20.5,45.8333 20.5,45.5C 20.8333,44.8333 21.1667,44.1667 21.5,43.5C 25.5,40.1667 29.1667,36.5 32.5,32.5C 34.1667,31.1667 35.8333,29.8333 37.5,28.5 Z"/></g>
<g><path style="opacity:1" fill="#191e25" d="M 56.5,37.5 C 56.5,38.1667 56.8333,38.5 57.5,38.5C 54.5,41.8333 51.5,45.1667 48.5,48.5C 47.8333,48.8333 47.1667,49.1667 46.5,49.5C 46.5,48.8333 46.1667,48.5 45.5,48.5C 48.8333,44.5 52.5,40.8333 56.5,37.5 Z"/></g>
<g><path style="opacity:1" fill="#010203" d="M 62.5,33.5 C 62.8333,33.5 63.1667,33.5 63.5,33.5C 63.5,33.8333 63.5,34.1667 63.5,34.5C 59.1667,39.5 54.5,44.1667 49.5,48.5C 49.1667,48.5 48.8333,48.5 48.5,48.5C 51.5,45.1667 54.5,41.8333 57.5,38.5C 59.5,37.1667 61.1667,35.5 62.5,33.5 Z"/></g>
<g><path style="opacity:1" fill="#191e25" d="M 21.5,41.5 C 21.5,42.1667 21.5,42.8333 21.5,43.5C 21.1667,44.1667 20.8333,44.8333 20.5,45.5C 17.1667,48.1667 14.1667,51.1667 11.5,54.5C 10.9569,54.56 10.6236,54.8933 10.5,55.5C 11.8569,57.1856 13.1902,58.8523 14.5,60.5C 14.5,61.1667 14.1667,61.5 13.5,61.5C 12.8333,61.1667 12.1667,60.8333 11.5,60.5C 11.1034,59.475 10.4368,59.3083 9.5,60C 8.9152,61.3024 8.24853,62.469 7.5,63.5C 7.16667,63.5 6.83333,63.5 6.5,63.5C 5.95691,63.44 5.62358,63.1067 5.5,62.5C 6.70542,59.5504 7.70542,56.5504 8.5,53.5C 11.8333,50.8333 14.8333,47.8333 17.5,44.5C 18.8333,43.5 20.1667,42.5 21.5,41.5 Z"/></g>
<g><path style="opacity:1" fill="#010205" d="M 16.5,44.5 C 16.8333,44.5 17.1667,44.5 17.5,44.5C 14.8333,47.8333 11.8333,50.8333 8.5,53.5C 8.5,53.1667 8.5,52.8333 8.5,52.5C 10.8333,49.5 13.5,46.8333 16.5,44.5 Z"/></g>
<g><path style="opacity:1" fill="#020304" d="M 48.5,48.5 C 48.8333,48.5 49.1667,48.5 49.5,48.5C 47.1667,51.5 44.5,54.1667 41.5,56.5C 41.1667,56.5 40.8333,56.5 40.5,56.5C 42.5,54.1667 44.5,51.8333 46.5,49.5C 47.1667,49.1667 47.8333,48.8333 48.5,48.5 Z"/></g>
<g><path style="opacity:1" fill="#030406" d="M 20.5,45.5 C 20.5,45.8333 20.5,46.1667 20.5,46.5C 18.1667,49.5 15.5,52.1667 12.5,54.5C 12.1667,54.5 11.8333,54.5 11.5,54.5C 14.1667,51.1667 17.1667,48.1667 20.5,45.5 Z"/></g>
<g><path style="opacity:1" fill="#040507" d="M 41.5,50.5 C 41.8333,50.5 42.1667,50.5 42.5,50.5C 38.8333,54.5 35.1667,58.5 31.5,62.5C 29.5,64.1667 27.5,65.8333 25.5,67.5C 25.5,67.1667 25.5,66.8333 25.5,66.5C 30.5,60.8333 35.8333,55.5 41.5,50.5 Z"/></g>
<g><path style="opacity:1" fill="#171d23" d="M 45.5,48.5 C 46.1667,48.5 46.5,48.8333 46.5,49.5C 44.5,51.8333 42.5,54.1667 40.5,56.5C 37.8333,58.8333 35.1667,61.1667 32.5,63.5C 32.5,62.8333 32.1667,62.5 31.5,62.5C 35.1667,58.5 38.8333,54.5 42.5,50.5C 43.5,49.8333 44.5,49.1667 45.5,48.5 Z"/></g>
<g><path style="opacity:1" fill="#111315" d="M 8.5,52.5 C 8.5,52.8333 8.5,53.1667 8.5,53.5C 7.70542,56.5504 6.70542,59.5504 5.5,62.5C 5.62358,63.1067 5.95691,63.44 6.5,63.5C 5.44886,64.2223 4.78219,65.2223 4.5,66.5C 3.83333,66.5 3.16667,66.5 2.5,66.5C 3.94171,61.4809 5.94171,56.8142 8.5,52.5 Z"/></g>
<g><path style="opacity:1" fill="#06060a" d="M 11.5,54.5 C 11.8333,54.5 12.1667,54.5 12.5,54.5C 15.7308,59.2391 19.5642,63.5724 24,67.5C 24.3826,66.944 24.8826,66.6107 25.5,66.5C 25.5,66.8333 25.5,67.1667 25.5,67.5C 25.5,68.1667 25.1667,68.5 24.5,68.5C 22.9382,68.2671 21.6049,67.6005 20.5,66.5C 18.8333,64.1667 16.8333,62.1667 14.5,60.5C 13.1902,58.8523 11.8569,57.1856 10.5,55.5C 10.6236,54.8933 10.9569,54.56 11.5,54.5 Z"/></g>
<g><path style="opacity:1" fill="#010204" d="M 10.5,61.5 C 10.5,60.8333 10.8333,60.5 11.5,60.5C 12.1667,60.8333 12.8333,61.1667 13.5,61.5C 14.8333,63.5 16.5,65.1667 18.5,66.5C 19.5063,67.3957 19.5063,68.0623 18.5,68.5C 15.8333,66.1667 13.1667,63.8333 10.5,61.5 Z"/></g>
<g><path style="opacity:1" fill="#1c2028" d="M 14.5,60.5 C 16.8333,62.1667 18.8333,64.1667 20.5,66.5C 19.8333,66.5 19.1667,66.5 18.5,66.5C 16.5,65.1667 14.8333,63.5 13.5,61.5C 14.1667,61.5 14.5,61.1667 14.5,60.5 Z"/></g>
<g><path style="opacity:1" fill="#161c23" d="M 31.5,62.5 C 32.1667,62.5 32.5,62.8333 32.5,63.5C 31.5,64.8333 30.5,66.1667 29.5,67.5C 28.1667,68.5 26.8333,69.5 25.5,70.5C 24.6618,70.1583 24.3284,69.4916 24.5,68.5C 25.1667,68.5 25.5,68.1667 25.5,67.5C 27.5,65.8333 29.5,64.1667 31.5,62.5 Z"/></g>
<g><path style="opacity:1" fill="#030406" d="M 40.5,56.5 C 40.8333,56.5 41.1667,56.5 41.5,56.5C 37.8333,60.8333 33.8333,64.8333 29.5,68.5C 29.5,68.1667 29.5,67.8333 29.5,67.5C 30.5,66.1667 31.5,64.8333 32.5,63.5C 35.1667,61.1667 37.8333,58.8333 40.5,56.5 Z"/></g>
<g><path style="opacity:1" fill="#0b0c0f" d="M 2.5,66.5 C 3.16667,66.5 3.83333,66.5 4.5,66.5C 3.43363,68.7014 2.76697,71.0347 2.5,73.5C -0.369727,78.0216 0.963607,79.355 6.5,77.5C 6.5,78.1667 6.83333,78.5 7.5,78.5C 6.16667,79.1667 4.83333,79.8333 3.5,80.5C 2.5,80.5 1.5,80.5 0.5,80.5C 0.5,79.8333 0.166667,79.5 -0.5,79.5C -0.5,77.8333 -0.5,76.1667 -0.5,74.5C 0.870963,72.064 1.87096,69.3973 2.5,66.5 Z"/></g>
<g><path style="opacity:1" fill="#0a0b0f" d="M 11.5,60.5 C 10.8333,60.5 10.5,60.8333 10.5,61.5C 8.79573,64.9385 7.4624,68.6052 6.5,72.5C 5.87605,72.0831 5.54272,71.4164 5.5,70.5C 6.17341,68.149 6.84007,65.8157 7.5,63.5C 8.24853,62.469 8.9152,61.3024 9.5,60C 10.4368,59.3083 11.1034,59.475 11.5,60.5 Z"/></g>
<g><path style="opacity:1" fill="#181d23" d="M 18.5,66.5 C 19.1667,66.5 19.8333,66.5 20.5,66.5C 21.6049,67.6005 22.9382,68.2671 24.5,68.5C 24.3284,69.4916 24.6618,70.1583 25.5,70.5C 25.0269,71.9063 24.0269,72.573 22.5,72.5C 20.8333,72.5 19.1667,72.5 17.5,72.5C 17.5,71.8333 17.1667,71.5 16.5,71.5C 17.2625,70.7321 18.2625,70.2321 19.5,70C 18.944,69.6174 18.6107,69.1174 18.5,68.5C 19.5063,68.0623 19.5063,67.3957 18.5,66.5 Z"/></g>
<g><path style="opacity:1" fill="#040507" d="M 29.5,67.5 C 29.5,67.8333 29.5,68.1667 29.5,68.5C 27.5302,72.1507 24.5302,74.1507 20.5,74.5C 20.5,74.1667 20.5,73.8333 20.5,73.5C 21.4916,73.6716 22.1583,73.3382 22.5,72.5C 24.0269,72.573 25.0269,71.9063 25.5,70.5C 26.8333,69.5 28.1667,68.5 29.5,67.5 Z"/></g>
<g><path style="opacity:1" fill="#1b2027" d="M 6.5,63.5 C 6.83333,63.5 7.16667,63.5 7.5,63.5C 6.84007,65.8157 6.17341,68.149 5.5,70.5C 5.54272,71.4164 5.87605,72.0831 6.5,72.5C 6.5,72.8333 6.5,73.1667 6.5,73.5C 6.16667,73.5 5.83333,73.5 5.5,73.5C 4.5,74.8333 3.5,74.8333 2.5,73.5C 2.76697,71.0347 3.43363,68.7014 4.5,66.5C 4.78219,65.2223 5.44886,64.2223 6.5,63.5 Z"/></g>
<g><path style="opacity:1" fill="#040507" d="M 16.5,71.5 C 17.1667,71.5 17.5,71.8333 17.5,72.5C 14.2107,73.3739 10.8774,74.0405 7.5,74.5C 6.50838,74.6716 5.84171,74.3382 5.5,73.5C 5.83333,73.5 6.16667,73.5 6.5,73.5C 9.78926,72.6261 13.1226,71.9595 16.5,71.5 Z"/></g>
<g><path style="opacity:1" fill="#1b2128" d="M 17.5,72.5 C 19.1667,72.5 20.8333,72.5 22.5,72.5C 22.1583,73.3382 21.4916,73.6716 20.5,73.5C 15.9336,75.142 11.2669,76.4753 6.5,77.5C 6.08247,76.7784 5.4158,76.2784 4.5,76C 5.73747,75.7679 6.73747,75.2679 7.5,74.5C 10.8774,74.0405 14.2107,73.3739 17.5,72.5 Z"/></g>
<g><path style="opacity:1" fill="#040607" d="M 20.5,73.5 C 20.5,73.8333 20.5,74.1667 20.5,74.5C 16.4052,76.2791 12.0719,77.6124 7.5,78.5C 6.83333,78.5 6.5,78.1667 6.5,77.5C 11.2669,76.4753 15.9336,75.142 20.5,73.5 Z"/></g>
<g><path style="opacity:1" fill="#171c25" d="M 2.5,73.5 C 3.5,74.8333 4.5,74.8333 5.5,73.5C 5.84171,74.3382 6.50838,74.6716 7.5,74.5C 6.73747,75.2679 5.73747,75.7679 4.5,76C 5.4158,76.2784 6.08247,76.7784 6.5,77.5C 0.963607,79.355 -0.369727,78.0216 2.5,73.5 Z"/></g>
</svg>
