<?xml version="1.0" encoding="UTF-8"?>
<!DOCTYPE svg PUBLIC "-//W3C//DTD SVG 1.1//EN" "http://www.w3.org/Graphics/SVG/1.1/DTD/svg11.dtd">
<svg xmlns="http://www.w3.org/2000/svg" version="1.1" width="48px" height="47px" style="shape-rendering:geometricPrecision; text-rendering:geometricPrecision; image-rendering:optimizeQuality; fill-rule:evenodd; clip-rule:evenodd" xmlns:xlink="http://www.w3.org/1999/xlink">
<g><path style="opacity:1" fill="#1d1e22" d="M 21.5,-0.5 C 22.5,-0.5 23.5,-0.5 24.5,-0.5C 25.3029,0.423175 25.4696,1.42317 25,2.5C 19.9646,7.70311 14.798,12.7031 9.5,17.5C 9.86932,15.0065 9.20266,14.3398 7.5,15.5C 11.7715,9.89024 16.4382,4.5569 21.5,-0.5 Z"/></g>
<g><path style="opacity:1" fill="#1e1f23" d="M 9.5,17.5 C 8.85917,18.4822 8.19251,19.4822 7.5,20.5C 20.8167,21.4992 34.15,21.8325 47.5,21.5C 47.5,22.5 47.5,23.5 47.5,24.5C 47.1667,24.5 46.8333,24.5 46.5,24.5C 33.4957,24.6666 20.4957,24.4999 7.5,24C 5.83997,22.5123 4.83997,20.679 4.5,18.5C 5.16667,17.1667 6.16667,16.1667 7.5,15.5C 9.20266,14.3398 9.86932,15.0065 9.5,17.5 Z"/></g>
<g><path style="opacity:1" fill="#1b1c1f" d="M 4.5,18.5 C 4.83997,20.679 5.83997,22.5123 7.5,24C 20.4957,24.4999 33.4957,24.6666 46.5,24.5C 33.6731,25.331 20.6731,25.831 7.5,26C 13.8655,32.031 19.8655,38.3643 25.5,45C 24.944,45.3826 24.6107,45.8826 24.5,46.5C 23.5,46.5 22.5,46.5 21.5,46.5C 14.139,38.8069 6.80567,31.1402 -0.5,23.5C -0.5,23.1667 -0.5,22.8333 -0.5,22.5C 1.16667,21.1667 2.83333,19.8333 4.5,18.5 Z"/></g>
</svg>
