<?xml version="1.0" standalone="no"?>
<!DOCTYPE svg PUBLIC "-//W3C//DTD SVG 20010904//EN"
 "http://www.w3.org/TR/2001/REC-SVG-20010904/DTD/svg10.dtd">
<svg version="1.0" xmlns="http://www.w3.org/2000/svg"
 width="37.000000pt" height="36.000000pt" viewBox="0 0 37.000000 36.000000"
 preserveAspectRatio="xMidYMid meet">

<g transform="translate(0.000000,36.000000) scale(0.100000,-0.100000)"
fill="#000000" stroke="none">
<path d="M150 308 c0 -22 -19 -33 -33 -19 -15 15 -27 14 -27 -4 0 -8 -8 -15
-17 -15 -14 0 -15 -2 -4 -9 7 -5 11 -14 7 -20 -5 -7 -1 -9 8 -5 9 3 16 15 16
25 0 22 15 25 23 5 4 -9 14 -12 27 -9 16 4 18 8 9 14 -20 12 1 23 54 28 4 1 7
5 7 10 0 12 -33 9 -42 -4 -5 -6 -12 -4 -18 5 -8 13 -10 13 -10 -2z"/>
<path d="M250 283 c-8 -12 -13 -14 -16 -6 -3 7 -12 9 -20 6 -25 -9 -15 -23 16
-23 17 0 30 5 30 10 0 6 5 10 11 10 6 0 9 -7 5 -15 -3 -8 -1 -15 4 -15 6 0 10
-4 10 -10 0 -5 -7 -10 -15 -10 -22 0 -2 -37 25 -45 23 -7 27 -25 6 -25 -8 0
-22 -7 -31 -16 -13 -14 -14 -19 -3 -25 17 -11 0 -28 -32 -31 -14 -2 -31 -11
-38 -20 -15 -20 -46 -12 -38 9 4 8 1 11 -5 7 -6 -4 -15 0 -20 7 -7 11 -9 10
-9 -3 0 -10 -4 -18 -9 -18 -11 0 -23 32 -19 48 2 5 -7 19 -19 29 -24 21 -22
69 2 59 8 -3 16 2 19 10 3 8 2 13 -2 12 -56 -27 -61 -32 -59 -59 1 -20 9 -30
25 -34 20 -5 32 -25 14 -25 -4 0 -8 -8 -8 -19 0 -12 5 -17 15 -13 10 4 13 1 8
-11 -7 -19 -3 -21 22 -7 13 7 23 4 37 -8 10 -9 30 -18 44 -19 14 -1 19 1 13 3
-18 8 -16 21 5 28 9 3 23 9 30 12 7 3 12 -1 12 -10 0 -19 11 -21 28 -4 15 15
16 58 2 58 -5 0 -10 5 -10 10 0 6 9 10 19 10 11 0 23 9 26 20 7 22 -13 49 -33
42 -15 -5 -15 0 3 34 13 26 13 30 -5 46 -24 22 -26 22 -40 1z m40 -203 c0 -5
-4 -10 -10 -10 -5 0 -10 5 -10 10 0 6 5 10 10 10 6 0 10 -4 10 -10z"/>
<path d="M180 228 c0 -5 -9 -6 -20 -3 -14 4 -20 2 -20 -8 0 -9 -5 -17 -11 -19
-9 -3 -9 -13 0 -40 8 -25 17 -35 27 -31 8 3 14 1 14 -4 0 -5 8 -9 19 -9 11 0
17 5 14 13 -3 7 -13 13 -23 13 -10 0 -22 6 -28 13 -16 19 -3 57 18 57 10 0 25
3 34 6 11 4 16 0 16 -14 0 -11 6 -22 13 -25 9 -3 7 -9 -5 -18 -12 -10 -15 -18
-8 -29 7 -11 11 -9 19 13 14 36 14 47 1 47 -6 0 -10 7 -8 17 2 10 -7 19 -24
24 -17 4 -28 3 -28 -3z"/>
</g>
</svg>
